<svg width="48" height="48" viewBox="0 0 48 48" fill="none" xmlns="http://www.w3.org/2000/svg">
<g clip-path="url(#clip0_282_7514)">
<path d="M0 25.7812V22.2188C0.106875 22.1034 0.084375 21.9563 0.09375 21.8194C0.143438 21.0244 0.264375 20.2378 0.419062 19.4587C1.44844 14.2941 3.89344 9.91313 7.76156 6.34406C11.1797 3.19031 15.1875 1.18875 19.7747 0.374063C20.6166 0.225 21.4659 0.12375 22.3125 0C23.4375 0 24.5625 0 25.6875 0C26.4581 0.103125 27.2325 0.180937 27.9975 0.315C32.4122 1.09031 36.3375 2.91844 39.7116 5.87344C43.9528 9.58781 46.6162 14.2181 47.6259 19.7784C47.7788 20.6184 47.8763 21.4678 48 22.3134V25.6884C47.9691 25.8394 47.9184 25.9894 47.9091 26.1413C47.8622 26.9362 47.7431 27.7237 47.5884 28.5019C46.5609 33.6816 44.1169 38.0822 40.2356 41.6606C36.8175 44.8116 32.8106 46.815 28.2244 47.6287C27.3834 47.7778 26.5341 47.8781 25.6884 48.0009H22.3134C22.1784 47.97 22.0434 47.9203 21.9066 47.9128C20.9381 47.8613 19.9828 47.7047 19.0406 47.4966C13.3603 46.2431 8.69906 43.335 5.09719 38.7703C2.50688 35.4881 0.898125 31.7634 0.263438 27.6206C0.169687 27.0084 0.182813 26.3813 0.0009375 25.7822L0 25.7812ZM23.9906 45C35.5256 45.0159 45.0056 35.5387 45 23.9963C44.9934 12.4556 35.5997 3.01031 24.0319 3.01125C12.4369 3.01219 3.06375 12.3141 3.0075 23.9794C2.95125 35.5059 12.4359 44.9841 23.9916 45H23.9906Z" fill="#2F2A69"/>
<path d="M22.5016 16.8493C22.5016 14.3818 22.511 11.9152 22.4922 9.44774C22.4894 9.06711 22.6047 8.97805 22.9619 8.99211C23.6482 9.0193 24.3372 9.02399 25.0225 8.99024C25.4135 8.97149 25.5119 9.08399 25.511 9.47586C25.496 13.9412 25.5054 18.4074 25.4941 22.8727C25.4932 23.2309 25.6019 23.4756 25.8532 23.7259C28.4894 26.3452 31.1097 28.9806 33.7488 31.5971C34.0254 31.8709 34.0432 32.0181 33.7507 32.2843C33.2088 32.7784 32.6997 33.3081 32.1907 33.8377C32.0135 34.0224 31.9047 34.0449 31.7088 33.848C28.7116 30.8387 25.7079 27.8359 22.6994 24.8387C22.5213 24.6615 22.4997 24.474 22.4997 24.2509C22.5035 21.7834 22.5016 19.3168 22.5016 16.8493Z" fill="#2F2A69"/>
</g>
<defs>
<clipPath id="clip0_282_7514">
<rect width="48" height="48" fill="white"/>
</clipPath>
</defs>
</svg>
