<svg width="34" height="34" viewBox="0 0 34 34" fill="none" xmlns="http://www.w3.org/2000/svg">
<path d="M18.1953 34H15.8047C15.7343 33.9289 15.6413 33.9402 15.555 33.9369C14.958 33.9117 14.3683 33.8194 13.7846 33.7058C10.8315 33.1287 8.19852 31.8763 5.92609 29.9007C2.77512 27.1602 0.847344 23.7296 0.195898 19.5952C0.122852 19.1296 0.0650781 18.6621 0 18.1953C0 17.3984 0 16.6016 0 15.8047C0.0710547 15.7343 0.0597656 15.6413 0.0630859 15.555C0.0883203 14.958 0.180625 14.3683 0.29418 13.7846C0.87125 10.8315 2.12367 8.19852 4.09926 5.92609C6.83984 2.77512 10.2704 0.847344 14.4048 0.195898C14.8704 0.122852 15.3379 0.0650781 15.8047 0C16.6016 0 17.3984 0 18.1953 0C18.2657 0.0710547 18.3587 0.0597656 18.445 0.0630859C19.042 0.0883203 19.6317 0.180625 20.2154 0.29418C23.1685 0.87125 25.8015 2.12367 28.0739 4.09926C31.2249 6.83918 33.1527 10.2697 33.8041 14.4048C33.8771 14.8704 33.9356 15.3379 34 15.8047V18.1953C33.9289 18.2657 33.9402 18.3587 33.9369 18.445C33.9117 19.042 33.8194 19.6317 33.7058 20.2154C33.1287 23.1685 31.8763 25.8015 29.9007 28.0739C27.1608 31.2249 23.7303 33.1527 19.5952 33.8041C19.1296 33.8771 18.6621 33.9356 18.1953 34ZM17.0146 31.3431C24.8984 31.3218 31.3524 24.8579 31.3431 16.9934C31.3338 9.11691 24.8738 2.64363 17.002 2.6609C9.06312 2.67816 2.65758 9.10762 2.66289 17.0232C2.6682 24.9136 9.15809 31.365 17.0146 31.3438V31.3431Z" fill="black"/>
<path d="M17.4294 26.8926C12.2417 26.8966 8.18031 23.5637 7.27984 18.8216C6.31961 13.7628 9.36965 8.86201 14.2777 7.50201C17.8418 6.51455 21.0246 7.33334 23.7871 9.79568C23.977 9.96502 23.979 10.0533 23.7964 10.226C23.2911 10.7061 22.7977 11.1995 22.3175 11.7049C22.1509 11.8802 22.0592 11.8523 21.8985 11.7022C20.5385 10.4292 18.9049 9.78971 17.0582 9.77776C13.949 9.75783 11.2802 11.6278 10.2416 14.4647C8.98515 17.8979 10.3212 21.4759 13.4862 23.312C16.0568 24.8035 19.6048 24.415 21.7896 22.4029C22.0074 22.2024 22.2243 22.2101 22.4404 22.4262C22.9019 22.8877 23.3588 23.3545 23.8283 23.8081C23.9737 23.9482 23.9803 24.0226 23.8243 24.168C21.9032 25.9603 19.6248 26.8488 17.4287 26.892L17.4294 26.8926Z" fill="black"/>
</svg>
