<svg width="34" height="34" viewBox="0 0 34 34" fill="none" xmlns="http://www.w3.org/2000/svg">
<path d="M10.625 15.5833H5.95837C5.40609 15.5833 4.95837 16.031 4.95837 16.5833V28.75C4.95837 29.3023 5.40609 29.75 5.95837 29.75H10.625M10.625 15.5833V29.75M10.625 15.5833L16.0153 4.80279C16.1847 4.464 16.531 4.25 16.9097 4.25H17.5417C19.1986 4.25 20.5417 5.59315 20.5417 7.25V11.75C20.5417 12.3023 20.9894 12.75 21.5417 12.75H26.616C28.5678 12.75 29.9998 14.5842 29.5265 16.4776L26.7765 27.4776C26.4426 28.8131 25.2426 29.75 23.866 29.75H10.625" stroke="#2F2A69" stroke-width="1.5"/>
</svg>
