<svg width="35" height="34" viewBox="0 0 35 34" fill="none" xmlns="http://www.w3.org/2000/svg">
<g clip-path="url(#clip0_263_2207)">
<path d="M30.7842 2.06124V33.3138H26.7447V25.2087C26.7447 24.4394 26.1483 23.835 25.3892 23.835H24.1557C23.3966 23.835 22.8001 24.4394 22.8001 25.2087V33.3138H18.7335V15.2491C18.7335 14.4798 18.1235 13.8754 17.378 13.8754H14.6127V2.06124C14.6127 1.30568 15.2227 0.6875 15.9682 0.6875H29.4287C30.1743 0.6875 30.7842 1.30568 30.7842 2.06124Z" stroke="#2F2A69" stroke-width="1.5" stroke-miterlimit="10"/>
<path d="M35 33.3125H30.7843" stroke="#2F2A69" stroke-width="1.5" stroke-miterlimit="10"/>
<path d="M3.91751 33.3125H0" stroke="#2F2A69" stroke-width="1.5" stroke-miterlimit="10"/>
<path d="M18.7335 15.2487V33.3134H11.9965V27.9421C11.9965 27.1865 11.4001 26.5683 10.641 26.5683H9.36674C8.6212 26.5683 8.01121 27.1865 8.01121 27.9421V33.3134H3.91748V15.2487C3.91748 14.4794 4.52747 13.875 5.27302 13.875H17.378C18.1235 13.875 18.7335 14.4794 18.7335 15.2487Z" stroke="#2F2A69" stroke-width="1.5" stroke-miterlimit="10"/>
<path d="M3.91748 18.3398H7.3741" stroke="#2F2A69" stroke-width="1.5" stroke-miterlimit="10"/>
<path d="M14.6127 4.80859H20.7939" stroke="#2F2A69" stroke-width="1.5" stroke-miterlimit="10"/>
<path d="M14.6127 9.60156H16.7138" stroke="#2F2A69" stroke-width="1.5" stroke-miterlimit="10"/>
<path d="M11.9965 27.9421V33.3134H8.01123V27.9421C8.01123 27.1865 8.62122 26.5684 9.36677 26.5684H10.641C11.4001 26.5684 11.9965 27.1865 11.9965 27.9421Z" stroke="#2F2A69" stroke-width="1.5" stroke-miterlimit="10"/>
<path d="M26.7448 25.2077V33.3128H22.8002V25.2077C22.8002 24.4384 23.3966 23.834 24.1557 23.834H25.3892C26.1484 23.834 26.7448 24.4384 26.7448 25.2077Z" stroke="#2F2A69" stroke-width="1.5" stroke-miterlimit="10"/>
<path d="M24.7657 13.0646C26.3378 13.0646 27.6123 11.773 27.6123 10.1798C27.6123 8.58651 26.3378 7.29492 24.7657 7.29492C23.1935 7.29492 21.9191 8.58651 21.9191 10.1798C21.9191 11.773 23.1935 13.0646 24.7657 13.0646Z" stroke="#2F2A69" stroke-width="1.5" stroke-miterlimit="10"/>
<path d="M14.0163 22.4883C15.1318 22.4883 16.036 21.5719 16.036 20.4414C16.036 19.3109 15.1318 18.3945 14.0163 18.3945C12.9008 18.3945 11.9965 19.3109 11.9965 20.4414C11.9965 21.5719 12.9008 22.4883 14.0163 22.4883Z" stroke="#2F2A69" stroke-width="1.5" stroke-miterlimit="10"/>
</g>
<defs>
<clipPath id="clip0_263_2207">
<rect width="35" height="34" fill="white"/>
</clipPath>
</defs>
</svg>
