<svg width="28" height="27" viewBox="0 0 28 27" fill="none" xmlns="http://www.w3.org/2000/svg">
<g clip-path="url(#clip0_310_2280)">
<path d="M24.6274 1.63583V26.454H21.3958V20.0177C21.3958 19.4067 20.9187 18.9267 20.3114 18.9267H19.3246C18.7173 18.9267 18.2401 19.4067 18.2401 20.0177V26.454H14.9869V12.1086C14.9869 11.4976 14.4989 11.0176 13.9024 11.0176H11.6902V1.63583C11.6902 1.03583 12.1782 0.544922 12.7746 0.544922H23.543C24.1394 0.544922 24.6274 1.03583 24.6274 1.63583Z" stroke="#2F2A69" stroke-miterlimit="10"/>
<path d="M28 26.4551H24.6274" stroke="#2F2A69" stroke-miterlimit="10"/>
<path d="M3.134 26.4551H0" stroke="#2F2A69" stroke-miterlimit="10"/>
<path d="M14.9869 12.1085V26.4539H9.59724V22.1885C9.59724 21.5885 9.12009 21.0976 8.51281 21.0976H7.49344C6.89701 21.0976 6.40901 21.5885 6.40901 22.1885V26.4539H3.13403V12.1085C3.13403 11.4976 3.62203 11.0176 4.21846 11.0176H13.9024C14.4989 11.0176 14.9869 11.4976 14.9869 12.1085Z" stroke="#2F2A69" stroke-miterlimit="10"/>
<path d="M3.13403 14.5645H5.89933" stroke="#2F2A69" stroke-miterlimit="10"/>
<path d="M11.6902 3.81836H16.6352" stroke="#2F2A69" stroke-miterlimit="10"/>
<path d="M11.6902 7.625H13.3711" stroke="#2F2A69" stroke-miterlimit="10"/>
<path d="M9.59716 22.1886V26.454H6.40894V22.1886C6.40894 21.5886 6.89693 21.0977 7.49337 21.0977H8.51273C9.12001 21.0977 9.59716 21.5886 9.59716 22.1886Z" stroke="#2F2A69" stroke-miterlimit="10"/>
<path d="M21.3959 20.0186V26.455H18.2402V20.0186C18.2402 19.4077 18.7174 18.9277 19.3247 18.9277H20.3115C20.9188 18.9277 21.3959 19.4077 21.3959 20.0186Z" stroke="#2F2A69" stroke-miterlimit="10"/>
<path d="M19.8125 10.3748C21.0702 10.3748 22.0898 9.34911 22.0898 8.08388C22.0898 6.81864 21.0702 5.79297 19.8125 5.79297C18.5547 5.79297 17.5352 6.81864 17.5352 8.08388C17.5352 9.34911 18.5547 10.3748 19.8125 10.3748Z" stroke="#2F2A69" stroke-miterlimit="10"/>
<path d="M11.213 17.8583C12.1054 17.8583 12.8288 17.1306 12.8288 16.2329C12.8288 15.3352 12.1054 14.6074 11.213 14.6074C10.3206 14.6074 9.59717 15.3352 9.59717 16.2329C9.59717 17.1306 10.3206 17.8583 11.213 17.8583Z" stroke="#2F2A69" stroke-miterlimit="10"/>
</g>
<defs>
<clipPath id="clip0_310_2280">
<rect width="28" height="27" fill="white"/>
</clipPath>
</defs>
</svg>
