<svg width="34" height="48" viewBox="0 0 34 48" fill="none" xmlns="http://www.w3.org/2000/svg">
<path d="M16.9434 47.192C15.8844 45.9363 14.8053 44.6961 13.7689 43.4223C9.85878 38.618 6.20503 33.6343 3.28783 28.1504C1.94156 25.621 0.787365 23.0064 0.231103 20.1671C-0.0986684 18.4856 -0.0506523 16.8051 0.218419 15.1272C0.794612 11.5333 2.38005 8.43395 4.93034 5.85105C7.20612 3.54718 9.94032 2.02154 13.0976 1.25872C14.0081 1.03857 14.9394 0.972432 15.8563 0.806641C16.6417 0.806641 17.4263 0.806641 18.2118 0.806641C18.6865 0.874588 19.163 0.930758 19.635 1.0132C25.1043 1.96718 29.2174 4.87986 31.9344 9.69868C33.5253 12.5198 34.1894 15.6019 33.9538 18.838C33.8079 20.8366 33.1665 22.7237 32.4037 24.5683C30.8753 28.2646 28.8097 31.6583 26.5747 34.9579C23.7191 39.1751 20.5763 43.1686 17.2025 46.9818C17.1427 47.0489 17.0902 47.1222 17.034 47.192H16.9434ZM16.9969 43.0354C17.1101 42.9077 17.2134 42.799 17.3085 42.6839C19.2156 40.3828 21.0592 38.0327 22.7941 35.5984C25.599 31.6629 28.2281 27.625 30.0455 23.1169C31.0167 20.707 31.5512 18.2446 31.1009 15.6146C30.6489 12.9765 29.6233 10.6191 27.8848 8.60065C25.2511 5.54393 21.9126 3.84434 17.8648 3.58251C15.0164 3.3977 12.3529 4.021 9.89321 5.45061C6.75404 7.27522 4.58698 9.92517 3.4509 13.3742C2.75421 15.4896 2.48967 17.6594 2.96621 19.8763C3.52247 22.4637 4.61144 24.8428 5.8508 27.1548C7.90824 30.9925 10.377 34.5638 13.0007 38.0318C14.2835 39.7278 15.6062 41.3929 16.9969 43.0363V43.0354Z" fill="black"/>
<path d="M6.97462 17.1157C6.98368 11.574 11.5117 7.04595 17.0209 7.07041C22.5309 7.09397 27.0426 11.5712 27.0399 17.1067C27.0372 22.7708 22.4784 27.1728 16.962 27.1629C11.4428 27.1529 6.96556 22.6358 6.97462 17.1166V17.1157ZM16.9855 9.81639C12.8978 9.85172 9.66081 13.144 9.69433 17.2308C9.72694 21.1808 13.0654 24.4667 17.02 24.4414C21.0723 24.4151 24.3365 21.1047 24.2976 17.0605C24.2595 13.0371 20.9736 9.78196 16.9855 9.81639Z" fill="black"/>
</svg>
