<svg width="16" height="16" viewBox="0 0 16 16" fill="none" xmlns="http://www.w3.org/2000/svg">
<path d="M2.33689 2.97215L5.99971 13.5536C6.0342 13.6533 6.09931 13.7394 6.18573 13.7999C6.27215 13.8603 6.37546 13.8918 6.48088 13.89C6.58631 13.8882 6.68846 13.853 6.77273 13.7897C6.857 13.7263 6.91908 13.6379 6.95009 13.5371L8.42231 8.75237C8.4463 8.67442 8.48898 8.60353 8.54665 8.54586C8.60432 8.48819 8.67521 8.44551 8.75316 8.42152L13.5379 6.9493C13.6387 6.91829 13.7271 6.85621 13.7904 6.77194C13.8538 6.68767 13.8889 6.58552 13.8908 6.4801C13.8926 6.37467 13.8611 6.27136 13.8006 6.18494C13.7402 6.09852 13.654 6.03341 13.5544 5.99892L2.97294 2.3361C2.88427 2.30541 2.78875 2.30028 2.69731 2.32132C2.60586 2.34235 2.52218 2.38869 2.45583 2.45504C2.38948 2.52139 2.34314 2.60507 2.32211 2.69652C2.30108 2.78796 2.3062 2.88348 2.33689 2.97215V2.97215Z" stroke="#36271F" stroke-linecap="round" stroke-linejoin="round"/>
</svg>
