<svg width="12" height="13" viewBox="0 0 12 13" fill="none" xmlns="http://www.w3.org/2000/svg">
<path d="M3.27977 6.54052C3.79842 7.60085 4.65792 8.45645 5.7206 8.97026C5.79835 9.00711 5.88436 9.02307 5.97015 9.01658C6.05595 9.01009 6.13857 8.98137 6.2099 8.93324L7.77462 7.88985C7.84383 7.8437 7.92345 7.81555 8.00628 7.80794C8.08911 7.80033 8.17253 7.81351 8.24898 7.84627L11.1763 9.10083C11.2757 9.14307 11.3588 9.21649 11.4128 9.31002C11.4669 9.40354 11.4892 9.51212 11.4762 9.61938C11.3837 10.3434 11.0304 11.0088 10.4826 11.4911C9.93474 11.9734 9.22989 12.2395 8.5 12.2396C6.24566 12.2396 4.08365 11.344 2.48959 9.74997C0.895533 8.15591 0 5.9939 0 3.73956C3.83803e-05 3.00967 0.266121 2.30482 0.748426 1.75699C1.23073 1.20915 1.89618 0.8559 2.62019 0.763376C2.72745 0.750396 2.83602 0.772625 2.92955 0.826715C3.02307 0.880804 3.09649 0.963824 3.13873 1.06327L4.39439 3.99313C4.42687 4.06892 4.4401 4.15156 4.43291 4.23369C4.42572 4.31583 4.39833 4.39491 4.35318 4.4639L3.31341 6.05263C3.26608 6.1241 3.23811 6.20662 3.23221 6.29214C3.22631 6.37765 3.2427 6.46323 3.27977 6.54052Z" fill="#2F2A69"/>
</svg>
