<svg width="34" height="26" viewBox="0 0 34 26" fill="none" xmlns="http://www.w3.org/2000/svg">
<path d="M34 3.17841V22.7647C33.9004 23.0671 33.8592 23.3889 33.7151 23.6762C33.1161 24.8721 32.1685 25.4638 30.8749 25.4638C22.7634 25.4638 14.6512 25.4638 6.53969 25.4638C5.35566 25.4638 4.17164 25.4715 2.98762 25.4611C2.03602 25.4528 1.26238 25.0479 0.650781 24.2866C0.308125 23.8596 0.164687 23.344 0 22.8346C0 16.2818 0 9.72978 0 3.17841C0.0139453 3.16111 0.0371875 3.14589 0.0405078 3.12651C0.317422 1.54715 1.66945 0.527003 3.28312 0.533231C11.4989 0.566452 19.7154 0.548458 27.9311 0.548458C28.9485 0.548458 29.9658 0.544305 30.9832 0.549842C31.9474 0.554686 32.731 0.955409 33.3499 1.72709C33.6925 2.15412 33.8327 2.67042 34 3.17772V3.17841ZM3.45113 2.63651C3.51887 2.71886 3.54477 2.75485 3.57531 2.78669C7.33324 6.68249 11.0845 10.5852 14.8531 14.4699C16.1314 15.787 17.9137 15.7503 19.202 14.418C22.9168 10.5748 26.6256 6.72609 30.335 2.87735C30.3981 2.8123 30.5077 2.7687 30.4924 2.63651H3.45113ZM3.44848 23.3703H30.517C30.4904 23.3197 30.4818 23.2879 30.4612 23.2671C27.6834 20.3894 24.9043 17.5138 22.1299 14.6333C21.9871 14.4845 21.9167 14.5564 21.8138 14.6651C21.3855 15.1157 20.9591 15.5683 20.5195 16.0071C18.5107 18.0107 15.5875 18.0404 13.5515 16.0735C13.1053 15.643 12.673 15.1946 12.2579 14.7315C12.068 14.5198 11.9664 14.5288 11.7712 14.7322C9.51734 17.0798 7.25289 19.4156 4.99309 21.7563C4.49106 22.2761 3.99367 22.8007 3.44914 23.371L3.44848 23.3703ZM2.0048 21.8719C2.07387 21.8165 2.10242 21.7978 2.12566 21.7743C4.88883 18.9146 7.64934 16.0514 10.4198 13.1986C10.6336 12.9785 10.4789 12.8961 10.3594 12.7715C7.65266 9.96647 4.9466 7.16142 2.23855 4.35774C2.17414 4.2913 2.12434 4.19441 2.00547 4.18126V21.8712L2.0048 21.8719ZM31.9813 21.8712V4.13835C31.877 4.24216 31.8039 4.31276 31.7336 4.38543C29.0421 7.17387 26.354 9.96509 23.6552 12.7459C23.4487 12.9591 23.4454 13.0608 23.6546 13.2761C26.3546 16.0548 29.0441 18.8453 31.7369 21.6324C31.8066 21.7044 31.8796 21.7722 31.9813 21.8719V21.8712Z" fill="black"/>
</svg>
